<?xml version="1.0" encoding="utf-8"?>
<!-- Generator: Adobe Illustrator 19.2.1, SVG Export Plug-In . SVG Version: 6.00 Build 0)  -->
<svg version="1.1" id="Layer_1" xmlns="http://www.w3.org/2000/svg" xmlns:xlink="http://www.w3.org/1999/xlink" x="0px" y="0px"
	 viewBox="0 0 305.5 305.7" style="enable-background:new 0 0 305.5 305.7;" xml:space="preserve">
<style type="text/css">
	.st0{fill:#FFFFFF;}
	.st1{fill:#AF6EE8;}
</style>
<circle class="st0" cx="152.8" cy="152.8" r="142"/>
<g>
	<path class="st1" d="M305.5,153c0.9,83.3-69.5,153.1-153.5,152.7C70.5,305.3-0.5,237.4,0,151.8C0.5,69.2,69.4-0.6,154.2,0
		C236.6,0.6,306.4,69.4,305.5,153z M236.1,152.9c-11.6,7.1-15.5,18.1-16.5,30.2c-0.8,9.1-0.8,18.3-1.1,27.4
		c-0.3,10.5-2.6,13.3-12.9,13.1c-5.2-0.1-6.4,1.6-6.3,6.6c0.3,14.4,0.1,14.4,14.6,12.9c14-1.4,21.2-7.6,24.3-21.4
		c1.1-5,1.5-10.1,1.8-15.3c0.5-8.9,0.4-17.9,1.2-26.9c0.9-10.4,5.7-14.7,16-15.4c2.8-0.2,3.9-1.2,3.8-3.9c-0.1-4.5-0.2-9,0-13.5
		c0.2-3.8-1.1-5.3-5.1-5.3c-7.5,0-11.5-2.9-13.5-10.1c-1.3-4.6-2-9.4-2.3-14.2c-0.6-9.3-0.4-18.6-1.1-27.9
		c-1.5-18-11.1-26.7-29.2-26.8c-10.3-0.1-10.3-0.1-10.3,10.6c0,8.6,0,8.6,8.7,8.9c6.3,0.2,8.7,1.7,9.6,7.8
		c0.9,6.5,0.5,13.3,0.9,19.9C219.7,125.8,219.6,142.4,236.1,152.9z M69.7,152.8c11.3-7.4,15.7-17.8,16.4-30
		c0.6-9.1,0.4-18.3,1.1-27.4c0.8-10.2,1.8-14,13.2-13.3c5.3,0.3,6.4-2,5.7-6.4c-0.1-0.7,0-1.3,0-2c0-11.5,0-11.5-11.8-11.2
		c-16.8,0.4-27,10.2-27.9,26.9c-0.5,10.1-0.7,20.3-1,30.4c-0.4,14.5-4.1,19-17.9,21.9c-1.2,0.2-2.7,2.3-2.8,3.7
		c-0.4,4.5,0,9-0.2,13.5c-0.2,3.9,1.1,5.3,5.1,5.3c7.1,0,11.6,3.2,13.5,9.6c1.2,4.2,2,8.7,2.2,13.2c0.6,9.5,0.6,18.9,1.1,28.4
		c1.2,22,15.8,30.6,39.6,26.8c0-3.1,0-6.2,0-9.4c0-8.8,0-8.8-8.9-9.2c-6.2-0.3-8.4-1.8-9.1-8.1c-0.8-7.9-0.5-15.9-1.1-23.9
		C86.1,176.8,84.4,162.2,69.7,152.8z M109.7,140.5c-7.1,0-12.8,5.6-12.7,12.5c0.1,6.8,5.6,12.1,12.5,12.1c7.3,0,12.7-5.4,12.7-12.4
		C122,146,116.5,140.5,109.7,140.5z M152.8,165.1c7.3,0,12.3-4.8,12.3-12c0.1-7.5-4.9-12.6-12.2-12.7c-7.3,0-12.5,5.3-12.4,12.6
		C140.6,160.1,145.6,165.1,152.8,165.1z M196,165.1c6.9,0,12.9-5.6,12.9-12.2c0-6.6-5.9-12.4-12.8-12.4c-6.9,0-12.7,5.8-12.6,12.5
		C183.6,159.6,189.3,165.1,196,165.1z"/>
</g>
</svg>
